<svg width="67" height="67" viewBox="0 0 67 67" fill="none" xmlns="http://www.w3.org/2000/svg">
<path d="M59.1161 67H7.88394C3.52347 67 0 63.463 0 59.1161V7.88394C0 3.52347 3.53697 0 7.88394 0H59.1161C63.4765 0 67 3.53697 67 7.88394V59.1161C67 63.4765 63.4765 67 59.1161 67Z" fill="#65B3FF"/>
<path d="M32.7641 26.9828C34.1881 26.9828 35.3426 25.8284 35.3426 24.4043C35.3426 22.9803 34.1881 21.8259 32.7641 21.8259C31.34 21.8259 30.1856 22.9803 30.1856 24.4043C30.1856 25.8284 31.34 26.9828 32.7641 26.9828Z" fill="white"/>
<path d="M32.7641 44.0467C34.1881 44.0467 35.3426 42.8923 35.3426 41.4682C35.3426 40.0442 34.1881 38.8898 32.7641 38.8898C31.34 38.8898 30.1856 40.0442 30.1856 41.4682C30.1856 42.8923 31.34 44.0467 32.7641 44.0467Z" fill="white"/>
<path d="M39.0281 22.0418V43.8307C39.0281 44.6407 39.6896 45.2212 40.4861 45.1267C46.5745 44.4112 51.313 39.2137 51.313 32.9363C51.313 26.6453 46.588 21.4614 40.4861 20.7459C39.6896 20.6514 39.0281 21.2319 39.0281 22.0418Z" fill="white"/>
<line x1="13.3109" y1="25.4608" x2="13.3109" y2="41.6607" stroke="white" stroke-width="4.04997" stroke-linecap="round"/>
</svg>
