<svg width="29" height="29" viewBox="0 0 29 29" fill="none" xmlns="http://www.w3.org/2000/svg">
<path d="M22.6521 11.9356L17.0644 6.34796M1 28L5.72764 27.4747C6.30525 27.4105 6.59405 27.3784 6.86399 27.2911C7.10348 27.2135 7.3314 27.104 7.54155 26.9654C7.77841 26.8092 7.98389 26.6037 8.39483 26.1928L26.8428 7.74486C28.3857 6.20188 28.3857 3.70022 26.8428 2.15724C25.2998 0.614256 22.7981 0.614254 21.2552 2.15723L2.80722 20.6052C2.39627 21.0161 2.1908 21.2216 2.0346 21.4584C1.89602 21.6686 1.78648 21.8965 1.70895 22.136C1.62156 22.4059 1.58947 22.6948 1.52529 23.2724L1 28Z" stroke="#636363" stroke-width="2" stroke-linecap="round" stroke-linejoin="round"/>
</svg>
