<svg width="27" height="29" viewBox="0 0 27 29" fill="none" xmlns="http://www.w3.org/2000/svg">
<path d="M13.5 19C8.7585 19 4.54193 21.296 1.85744 24.859C1.27966 25.6258 0.990775 26.0092 1.00022 26.5274C1.00753 26.9278 1.25821 27.4328 1.57231 27.68C1.97888 28 2.54228 28 3.66909 28H23.3309C24.4577 28 25.0211 28 25.4277 27.68C25.7418 27.4328 25.9925 26.9278 25.9998 26.5274C26.0092 26.0092 25.7203 25.6258 25.1426 24.859C22.4581 21.296 18.2415 19 13.5 19Z" stroke="#65B3FF" stroke-width="2" stroke-linecap="round" stroke-linejoin="round"/>
<path d="M13.5 14.5C17.2172 14.5 20.2307 11.4779 20.2307 7.75C20.2307 4.02208 17.2172 1 13.5 1C9.78276 1 6.76934 4.02208 6.76934 7.75C6.76934 11.4779 9.78276 14.5 13.5 14.5Z" stroke="#65B3FF" stroke-width="2" stroke-linecap="round" stroke-linejoin="round"/>
</svg>
