<svg width="29" height="28" viewBox="0 0 29 28" fill="none" xmlns="http://www.w3.org/2000/svg">
<path d="M9.47899 9.23298L9.62504 10.2223L9.47899 9.23298ZM9.90065 9.14018L9.47551 8.23505L9.90065 9.14018ZM10.3407 8.6001L9.44226 8.16102L10.3407 8.6001ZM10.1233 8.97664L10.8593 9.65364L10.1233 8.97664ZM1.83978 12.2414L1.13848 12.9543H1.13848L1.83978 12.2414ZM1.00617 11.2047L1.99773 11.0751L1.00617 11.2047ZM2.47352 10.2672L2.32747 9.27795L2.47352 10.2672ZM1.19626 10.6126L0.466895 9.92846L1.19626 10.6126ZM7.23693 18.2512L6.25104 18.0838L7.23693 18.2512ZM7.28023 17.8169L8.2731 17.6977L7.28023 17.8169ZM6.90708 17.2266L7.60839 16.5137L6.90708 17.2266ZM7.19499 17.5521L8.07074 17.0694L7.19499 17.5521ZM7.70389 26.5125L8.17299 27.3956V27.3956L7.70389 26.5125ZM6.46937 26.9929L6.28533 27.9758L6.46937 26.9929ZM6.04128 25.2926L7.02716 25.46L6.04128 25.2926ZM5.97061 26.6269L5.08989 27.1005L5.97061 26.6269ZM15.0333 23.1858L14.5642 24.069L15.0333 23.1858ZM14.6378 23.01L14.8321 22.0291L14.6378 23.01ZM13.9667 23.1858L13.4976 22.3027L13.9667 23.1858ZM14.3622 23.01L14.5565 23.9909L14.3622 23.01ZM22.9587 25.2926L23.9446 25.1251L22.9587 25.2926ZM23.0294 26.6269L22.1487 26.1533L23.0294 26.6269ZM21.2961 26.5125L21.7652 25.6293L21.2961 26.5125ZM22.5306 26.9929L22.3466 26.0099L22.5306 26.9929ZM22.0929 17.2266L22.7942 17.9394L22.0929 17.2266ZM21.805 17.5521L22.6808 18.0349L21.805 17.5521ZM21.7631 18.2512L20.7772 18.4187L21.7631 18.2512ZM21.7198 17.8169L20.7269 17.6977L21.7198 17.8169ZM26.5265 10.2672L26.6725 9.27795L26.5265 10.2672ZM27.8037 10.6126L28.5331 9.92846L27.8037 10.6126ZM27.1602 12.2414L26.4589 11.5286L27.1602 12.2414ZM27.9938 11.2047L27.0023 11.0751L27.9938 11.2047ZM18.6593 8.6001L19.5577 8.16102L18.6593 8.6001ZM18.8767 8.97664L18.1407 9.65364L18.8767 8.97664ZM19.521 9.23298L19.375 10.2223L19.521 9.23298ZM19.0993 9.14018L19.5245 8.23505L19.0993 9.14018ZM15.5274 2.19156L14.629 2.63063V2.63063L15.5274 2.19156ZM14.8082 1.07042L15.2421 0.169449L14.8082 1.07042ZM13.4726 2.19156L14.371 2.63063L13.4726 2.19156ZM14.1918 1.07042L13.7579 0.169449L14.1918 1.07042ZM14.629 2.63063L17.7608 9.03917L19.5577 8.16102L16.4259 1.75249L14.629 2.63063ZM19.375 10.2223L26.3804 11.2565L26.6725 9.27795L19.6671 8.24371L19.375 10.2223ZM26.4589 11.5286L21.3916 16.5137L22.7942 17.9394L27.8615 12.9543L26.4589 11.5286ZM20.7772 18.4187L21.9728 25.46L23.9446 25.1251L22.749 18.0838L20.7772 18.4187ZM21.7652 25.6293L15.5024 22.3027L14.5642 24.069L20.827 27.3956L21.7652 25.6293ZM13.4976 22.3027L7.23479 25.6293L8.17299 27.3956L14.4358 24.069L13.4976 22.3027ZM7.02716 25.46L8.22281 18.4187L6.25104 18.0838L5.05539 25.1251L7.02716 25.46ZM7.60839 16.5137L2.54109 11.5286L1.13848 12.9543L6.20578 17.9394L7.60839 16.5137ZM2.61957 11.2565L9.62504 10.2223L9.33294 8.24371L2.32747 9.27795L2.61957 11.2565ZM11.2392 9.03917L14.371 2.63063L12.5741 1.75249L9.44226 8.16102L11.2392 9.03917ZM9.62504 10.2223C9.78215 10.1991 10.0662 10.1672 10.3258 10.0453L9.47551 8.23505C9.52471 8.21194 9.55684 8.20714 9.53491 8.21164C9.52261 8.21417 9.50209 8.21792 9.4665 8.22357C9.43072 8.22926 9.38897 8.23544 9.33294 8.24371L9.62504 10.2223ZM9.44226 8.16102C9.41722 8.21227 9.39847 8.25061 9.38201 8.28338C9.36564 8.31598 9.35561 8.33488 9.34922 8.34632C9.33766 8.367 9.35132 8.3388 9.38733 8.29964L10.8593 9.65364C11.0523 9.44378 11.1685 9.18372 11.2392 9.03917L9.44226 8.16102ZM10.3258 10.0453C10.5277 9.95049 10.7087 9.81732 10.8593 9.65364L9.38733 8.29964C9.41179 8.27305 9.44164 8.25096 9.47551 8.23505L10.3258 10.0453ZM2.54109 11.5286C2.25986 11.2519 2.09905 11.0923 1.99793 10.9729C1.88687 10.8418 1.97485 10.9001 1.99773 11.0751L0.0146086 11.3344C0.0699851 11.7579 0.307735 12.0719 0.471837 12.2656C0.64588 12.4711 0.885621 12.7055 1.13848 12.9543L2.54109 11.5286ZM2.32747 9.27795C1.97852 9.32947 1.64738 9.37733 1.38625 9.44075C1.14019 9.50051 0.76109 9.61481 0.466895 9.92846L1.92563 11.2967C1.85962 11.3671 1.79911 11.3978 1.7836 11.4049C1.77255 11.41 1.78914 11.401 1.85829 11.3842C2.00868 11.3477 2.23082 11.3139 2.61957 11.2565L2.32747 9.27795ZM1.99773 11.0751C2.00806 11.1541 1.98298 11.2356 1.92563 11.2967L0.466895 9.92846C0.112502 10.3063 -0.0522677 10.8229 0.0146086 11.3344L1.99773 11.0751ZM8.22281 18.4187C8.24996 18.2588 8.30705 17.9805 8.2731 17.6977L6.28736 17.9361C6.28114 17.8843 6.28642 17.8542 6.2837 17.878C6.2822 17.8913 6.27929 17.9126 6.27355 17.9488C6.26778 17.9852 6.26062 18.0274 6.25104 18.0838L8.22281 18.4187ZM6.20578 17.9394C6.24638 17.9794 6.27671 18.0092 6.30249 18.0351C6.32812 18.0609 6.34276 18.0763 6.35149 18.0859C6.36709 18.1031 6.34477 18.0812 6.31924 18.0349L8.07074 17.0694C7.93276 16.8191 7.72308 16.6265 7.60839 16.5137L6.20578 17.9394ZM8.2731 17.6977C8.24665 17.4774 8.17805 17.264 8.07074 17.0694L6.31924 18.0349C6.30218 18.0039 6.29147 17.9704 6.28736 17.9361L8.2731 17.6977ZM7.23479 25.6293C6.88691 25.8141 6.68723 25.9191 6.54405 25.9791C6.47813 26.0067 6.45947 26.0093 6.47163 26.0068C6.48854 26.0033 6.55673 25.9918 6.65341 26.0099L6.28533 27.9758C6.70975 28.0552 7.08455 27.9211 7.31709 27.8236C7.56507 27.7197 7.8606 27.5616 8.17299 27.3956L7.23479 25.6293ZM5.05539 25.1251C4.99564 25.477 4.93836 25.8085 4.91728 26.0774C4.89748 26.33 4.88761 26.7244 5.08989 27.1005L6.85134 26.1533C6.89646 26.2372 6.90591 26.3026 6.90755 26.3171C6.90868 26.3271 6.90546 26.3064 6.91116 26.2337C6.9235 26.0763 6.96081 25.8507 7.02716 25.46L5.05539 25.1251ZM6.65341 26.0099C6.74089 26.0263 6.81243 26.0809 6.85134 26.1533L5.08989 27.1005C5.335 27.5563 5.77307 27.8799 6.28533 27.9758L6.65341 26.0099ZM15.5024 22.3027C15.3619 22.228 15.1137 22.0848 14.8321 22.0291L14.4435 23.9909C14.3899 23.9803 14.3611 23.965 14.3817 23.9746C14.3932 23.9799 14.4121 23.9891 14.4443 24.0057C14.4766 24.0225 14.514 24.0423 14.5642 24.069L15.5024 22.3027ZM14.4358 24.069C14.486 24.0423 14.5234 24.0225 14.5557 24.0057C14.5879 23.9891 14.6068 23.9799 14.6183 23.9746C14.6389 23.965 14.6101 23.9803 14.5565 23.9909L14.1679 22.0291C13.8863 22.0848 13.6381 22.228 13.4976 22.3027L14.4358 24.069ZM14.8321 22.0291C14.6128 21.9856 14.3872 21.9856 14.1679 22.0291L14.5565 23.9909C14.5192 23.9983 14.4808 23.9983 14.4435 23.9909L14.8321 22.0291ZM21.9728 25.46C22.0392 25.8508 22.0765 26.0763 22.0888 26.2337C22.0945 26.3064 22.0913 26.3271 22.0924 26.3171C22.0941 26.3026 22.1035 26.2372 22.1487 26.1533L23.9101 27.1005C24.1124 26.7244 24.1025 26.33 24.0827 26.0774C24.0616 25.8085 24.0044 25.477 23.9446 25.1251L21.9728 25.46ZM20.827 27.3956C21.1394 27.5616 21.4349 27.7197 21.6829 27.8236C21.9155 27.9211 22.2903 28.0552 22.7147 27.9758L22.3466 26.0099C22.4433 25.9918 22.5115 26.0033 22.5284 26.0068C22.5405 26.0093 22.5219 26.0067 22.456 25.9791C22.3128 25.9191 22.1131 25.8141 21.7652 25.6293L20.827 27.3956ZM22.1487 26.1533C22.1876 26.0809 22.2591 26.0263 22.3466 26.0099L22.7147 27.9758C23.2269 27.8799 23.665 27.5563 23.9101 27.1005L22.1487 26.1533ZM21.3916 16.5137C21.2769 16.6265 21.0672 16.8191 20.9293 17.0694L22.6808 18.0349C22.6552 18.0812 22.6329 18.1031 22.6485 18.0859C22.6572 18.0763 22.6719 18.0609 22.6975 18.0351C22.7233 18.0092 22.7536 17.9794 22.7942 17.9394L21.3916 16.5137ZM22.749 18.0838C22.7394 18.0274 22.7322 17.9852 22.7264 17.9488C22.7207 17.9126 22.7178 17.8913 22.7163 17.878C22.7136 17.8542 22.7189 17.8843 22.7126 17.9361L20.7269 17.6977C20.693 17.9805 20.75 18.2588 20.7772 18.4187L22.749 18.0838ZM20.9293 17.0694C20.822 17.264 20.7533 17.4774 20.7269 17.6977L22.7126 17.9361C22.7085 17.9704 22.6978 18.0039 22.6808 18.0349L20.9293 17.0694ZM26.3804 11.2565C26.7692 11.3139 26.9913 11.3477 27.1417 11.3842C27.2109 11.401 27.2275 11.41 27.2164 11.4049C27.2009 11.3978 27.1404 11.3671 27.0744 11.2967L28.5331 9.92846C28.2389 9.61481 27.8598 9.50052 27.6138 9.44075C27.3526 9.37733 27.0215 9.32947 26.6725 9.27795L26.3804 11.2565ZM27.8615 12.9543C28.1144 12.7055 28.3541 12.4711 28.5282 12.2656C28.6923 12.0719 28.93 11.7579 28.9854 11.3344L27.0023 11.0751C27.0252 10.9001 27.1131 10.8418 27.0021 10.9729C26.901 11.0923 26.7401 11.2519 26.4589 11.5286L27.8615 12.9543ZM27.0744 11.2967C27.017 11.2356 26.9919 11.1541 27.0023 11.0751L28.9854 11.3344C29.0523 10.8229 28.8875 10.3063 28.5331 9.92846L27.0744 11.2967ZM17.7608 9.03917C17.8315 9.18372 17.9477 9.44378 18.1407 9.65364L19.6127 8.29964C19.6487 8.3388 19.6623 8.367 19.6508 8.34633C19.6444 8.33488 19.6344 8.31598 19.618 8.28338C19.6015 8.25062 19.5828 8.21228 19.5577 8.16102L17.7608 9.03917ZM19.6671 8.24371C19.611 8.23544 19.5693 8.22926 19.5335 8.22357C19.4979 8.21792 19.4774 8.21417 19.4651 8.21164C19.4432 8.20714 19.4753 8.21194 19.5245 8.23505L18.6742 10.0453C18.9338 10.1672 19.2179 10.1991 19.375 10.2223L19.6671 8.24371ZM18.1407 9.65364C18.2913 9.81732 18.4723 9.95049 18.6742 10.0453L19.5245 8.23505C19.5584 8.25096 19.5882 8.27305 19.6127 8.29964L18.1407 9.65364ZM16.4259 1.75249C16.2696 1.43258 16.1229 1.13018 15.9832 0.899792C15.8525 0.684177 15.6293 0.355915 15.2421 0.169449L14.3743 1.97138C14.2865 1.92907 14.2391 1.8802 14.2285 1.86857C14.2211 1.86037 14.2353 1.8745 14.2729 1.9365C14.3543 2.07083 14.4552 2.27505 14.629 2.63063L16.4259 1.75249ZM14.371 2.63063C14.5448 2.27505 14.6457 2.07083 14.7271 1.9365C14.7647 1.8745 14.7789 1.86037 14.7715 1.86857C14.7609 1.8802 14.7135 1.92907 14.6257 1.97138L13.7579 0.169449C13.3707 0.355915 13.1475 0.684177 13.0168 0.899793C12.8771 1.13018 12.7304 1.43258 12.5741 1.75249L14.371 2.63063ZM15.2421 0.169449C14.7729 -0.0564831 14.2271 -0.0564831 13.7579 0.169449L14.6257 1.97138C14.5465 2.00954 14.4535 2.00954 14.3743 1.97138L15.2421 0.169449Z" fill="#65B3FF"/>
</svg>
