<svg width="30" height="29" viewBox="0 0 30 29" fill="none" xmlns="http://www.w3.org/2000/svg">
<path d="M10.8 28V17.344C10.8 16.5375 10.8 16.1343 10.9526 15.8263C11.0868 15.5553 11.301 15.335 11.5644 15.197C11.8639 15.04 12.2559 15.04 13.04 15.04H16.96C17.7441 15.04 18.1361 15.04 18.4356 15.197C18.699 15.335 18.9132 15.5553 19.0474 15.8263C19.2 16.1343 19.2 16.5375 19.2 17.344V28M1 11.44L13.656 1.6768C14.138 1.305 14.3789 1.1191 14.6436 1.04744C14.8772 0.984186 15.1228 0.984186 15.3564 1.04744C15.6211 1.1191 15.862 1.305 16.344 1.6768L29 11.44M3.80001 9.28V23.392C3.80001 25.005 3.80001 25.8114 4.10519 26.4275C4.37363 26.9694 4.80198 27.41 5.32883 27.6861C5.92778 28 6.71186 28 8.28 28H21.72C23.2881 28 24.0722 28 24.6712 27.6861C25.198 27.41 25.6264 26.9694 25.8948 26.4275C26.2 25.8114 26.2 25.005 26.2 23.392V9.28L17.688 2.7136C16.7241 1.97 16.2421 1.5982 15.7128 1.45488C15.2456 1.32837 14.7544 1.32837 14.2872 1.45488C13.7579 1.5982 13.2759 1.97 12.312 2.7136L3.80001 9.28Z" stroke="#65B3FF" stroke-width="2" stroke-linecap="round" stroke-linejoin="round"/>
</svg>
